<svg id="Capa_1" data-name="Capa 1" xmlns="http://www.w3.org/2000/svg" viewBox="0 0 300 106.63"><defs><style>.cls-1{fill:#fa9370;}</style></defs><title>logo web mendo weddings</title><path class="cls-1" d="M54,0q1.89,12.11,3.76,24.22Q60.61,42.61,63.53,61c.17,1.11-.18,1.61-1.32,1.56-.64,0-1.28,0-1.91,0-4.33-.09-3.59.76-4.45-3.85-1.79-9.65-3.5-19.31-5.25-29-.07-.41-.21-.8-.42-1.57-.8,1.59-1.47,2.88-2.1,4.18q-7.26,14.91-14.5,29.8c-.24.5-.33,1.32-1,1.32s-.72-.82-1-1.32L16.81,29.86a4.07,4.07,0,0,0-1-1.71,27,27,0,0,0-1.27,4.92Q11.35,47,8.28,60.87c-.33,1.49-1,2.07-2.48,2a34.56,34.56,0,0,0-3.67,0c-1.27,0-1.68-.44-1.44-1.74C2.63,50.68,4.52,40.3,6.44,29.91Q9,15.75,11.68,1.59c.09-.52.09-1.06.14-1.59h.95c.21.6.38,1.21.63,1.79Q21.85,21,30.31,40.26c.73,1.66,1.49,3.31,2.35,5.21.36-.66.58-1,.75-1.38q5.16-11.48,10.31-22.94Q48.51,10.56,53.33,0Z"/><path class="cls-1" d="M0,83.83c3.63-.17,3.65-.17,4.46,3.32,1,4.19,1.9,8.38,2.85,12.57,0,.1.08.2.22.54.68-2.56,1.32-4.91,2-7.27.66-2.52,1.32-5,2-7.55.24-.92.48-1.7,1.72-1.67s1.37.79,1.59,1.64c1.28,4.87,2.56,9.75,3.95,15.07.51-2.18.92-3.93,1.32-5.69.73-3.21,1.45-6.42,2.2-9.62a2.58,2.58,0,0,1,3.44-1.25c.44.33.3.77.2,1.17-1.65,6.76-3.33,13.5-4.94,20.26-.3,1.26-1.18,1.15-2.09,1.17s-1.74-.06-2-1.26c-1-4-2.07-7.91-3.12-11.86-.1-.35-.22-.69-.38-1.18a2.58,2.58,0,0,0-.73,1.57c-1,3.67-2.1,7.34-3,11-.34,1.39-1.08,1.67-2.37,1.71s-1.8-.7-2.07-1.85c-1.48-6.2-3-12.38-4.51-18.57-.16-.67-.38-1.32-.58-2Z"/><path class="cls-1" d="M129.39,21.43V60.08c0,2.44,0,2.44-2.51,2.45-1.17,0-2.34,0-3.51,0s-1.47-.46-1.42-1.45c0-.37,0-.75,0-1.12V3.55c0-.27,0-.54,0-.8s-.16-.95.37-1.1.64.32.88.58q3.26,3.41,6.49,6.81l32.58,34.38c.57.61,1.09,1.28,1.68,2a2.43,2.43,0,0,0,.41-1.93q0-20,0-40c0-2.23,0-2.23,2.2-2.24,1.22,0,2.45.07,3.67,0,1.51-.12,2,.42,2,2-.08,5.89,0,11.79,0,17.69q0,20.31,0,40.64c0,.53.33,1.32-.34,1.56-.51.19-.86-.51-1.22-.87-2.73-2.69-5.44-5.39-8.16-8.09L130.79,22.68C130.46,22.35,130.09,22.05,129.39,21.43Z"/><path class="cls-1" d="M300,31.16A30.84,30.84,0,1,1,269.47,1.1C288.15,1.48,300.74,17.5,300,31.16ZM269.32,55.38a23.28,23.28,0,0,0,23.45-23.54A23.53,23.53,0,0,0,269.16,8.38C256,8.4,245.7,18.94,245.7,32.32,245.69,45,256.3,55.39,269.32,55.38Z"/><path class="cls-1" d="M183.56,31.92c0-9.56,0-19.11,0-28.67,0-1.61.5-2.11,2.1-2.1,4.73,0,9.46-.23,14.18-.17,6.2.08,12.17,1.24,17.54,4.54,8,4.91,11.67,12.4,12.62,21.4a39.13,39.13,0,0,1-1.67,17.28Q222.73,60.12,206,62.28a42.75,42.75,0,0,1-4.93.28l-15.46.24c-2,0-2,0-2-2.06Q183.55,46.34,183.56,31.92Zm6.88-.45V52.33a.85.85,0,0,1,0,.16c-.1,1.07.19,1.68,1.47,1.66,4.2,0,8.42.25,12.59-.1,7.05-.59,12.7-3.69,15.94-10.29,2.64-5.36,2.76-11,2.11-16.8a19.26,19.26,0,0,0-16-17.33c-4.74-.9-9.53-.51-14.31-.64-1.54,0-1.86.53-1.85,1.94C190.48,17.78,190.44,24.62,190.44,31.47Z"/><path class="cls-1" d="M97,37.3c-3.41,0-6.81-.06-10.21,0a12.33,12.33,0,0,1-6.57-1.55c-2.08-1.18-4.24-2.22-6.34-3.36-.55-.3-1.31-.78-.16-1.28,3.63-1.6,7-3.8,11.11-4.25a23.82,23.82,0,0,1,2.38-.18c7.34,0,14.68,0,22,0,1.67,0,2.13.58,2,2.13-.11,2.07,0,4.14,0,6.21s-.16,2.26-2.28,2.28c-4,0-8,0-12,0Z"/><path class="cls-1" d="M92.94,62.53H76.51c-.51,0-1.22.23-1.47-.3s.44-1,.82-1.37c2.7-2.56,5.44-5.08,8.13-7.64a4.64,4.64,0,0,1,3.32-1.3c7.29,0,14.57,0,21.86,0,1.57,0,2.17.53,2.08,2.15-.12,2.22-.09,4.46,0,6.68.06,1.42-.51,1.84-1.87,1.83C103.89,62.5,98.42,62.52,92.94,62.53Z"/><path class="cls-1" d="M92.14,1.23c5.69,0,11.38,0,17.07,0,1.55,0,2.07.53,2,2-.09,2.22,0,4.45,0,6.68,0,1.15-.43,1.62-1.6,1.62-7.65,0-15.31,0-23,0a3.62,3.62,0,0,1-2.36-.83L74.09,2.52c-.31-.25-.85-.45-.64-1s.74-.32,1.14-.32C80.44,1.22,86.29,1.23,92.14,1.23Z"/><path class="cls-1" d="M211.32,100c0-5.15,0-9.8,0-14.45,0-1.36.51-1.75,1.79-1.74s1.65.5,1.64,1.71c0,6.32,0,12.64,0,19,0,.72.39,1.77-.75,2s-2.28.29-3.08-1c-2-3.26-4.1-6.46-6.17-9.68l-2.87-4.43c-.49.49-.29,1-.29,1.43,0,3.88,0,7.75,0,11.63,0,1.29-.2,2.11-1.8,2.12s-1.85-.68-1.84-2c0-6.21,0-12.43,0-18.64,0-.73-.35-1.76.81-1.95s2.2-.31,2.95.92c2.35,3.8,4.77,7.55,7.16,11.32C209.59,97.26,210.32,98.4,211.32,100Z"/><path class="cls-1" d="M88.14,95.06c0-3.18,0-6.36,0-9.54,0-1.31.48-1.82,1.78-1.75,2.54.14,5.1-.24,7.63.24,4.16.79,6.45,3.38,6.6,7.55.08,2.39.09,4.78,0,7.16-.18,4.72-3.2,7.52-8.35,7.77-2,.09-4,0-6.05,0-1.18,0-1.67-.47-1.6-1.61,0-.1,0-.21,0-.32Zm12.36.18h0c0-1.11,0-2.22,0-3.34-.09-2.75-1.34-4.11-4.09-4.59a30.48,30.48,0,0,0-3.17-.2c-1.23-.09-1.54.47-1.53,1.6,0,3.33,0,6.68,0,10,.09,4.87-1,4.23,4.47,4.2,2.59,0,4.11-1.57,4.27-4.18C100.56,97.58,100.5,96.41,100.5,95.24Z"/><path class="cls-1" d="M128.62,95c0-3.14,0-6.27,0-9.4,0-1.26.34-1.89,1.71-1.82,2.65.14,5.32-.22,8,.29a7.08,7.08,0,0,1,6.2,7.33c0,2.13,0,4.25,0,6.38.07,5.49-2.58,8.41-8.09,8.71-2.07.11-4.15,0-6.22,0-1.21,0-1.64-.53-1.53-1.65,0-.05,0-.11,0-.16Zm3.61-.16v6.67c0,.76.13,1.43,1.08,1.42a36,36,0,0,0,4.29-.1,3.82,3.82,0,0,0,3.2-3.31,31.31,31.31,0,0,0,.26-5.39c0-5.73-1.59-7.21-7.37-7-1.13,0-1.5.46-1.48,1.52C132.25,90.69,132.23,92.76,132.23,94.83Z"/><path class="cls-1" d="M239.52,94.75a25.69,25.69,0,0,1,.26-4.58,7.38,7.38,0,0,1,7-6.46A7.8,7.8,0,0,1,255.11,89c.39,1.17.16,1.63-1.16,1.65s-2.27-.18-2.93-1.55a4.1,4.1,0,0,0-7.45,1,24.38,24.38,0,0,0,0,10.1c.43,2.14,2.47,3.26,4.8,3A4.13,4.13,0,0,0,252,99c0-1-.35-1.5-1.38-1.45-.42,0-.85,0-1.28,0-1.27.09-1.82-.44-1.82-1.76S248,94,249.29,94c1.59.06,3.19,0,4.79,0,1,0,1.58.36,1.52,1.49-.11,2.11.24,4.23-.56,6.3-1.34,3.47-4.49,5.21-8.77,4.74a7.26,7.26,0,0,1-6.53-6.39A37.59,37.59,0,0,1,239.52,94.75Z"/><path class="cls-1" d="M49.18,95c0-3.08,0-6.16,0-9.24,0-1.38.35-2,1.89-2,3.72.09,7.45.07,11.17,0,1.32,0,1.77.47,1.76,1.78s-.59,1.61-1.75,1.59c-2.66,0-5.33,0-8,0-1.12,0-1.53.39-1.47,1.49a31.44,31.44,0,0,1,0,3.5c-.08,1.23.47,1.56,1.61,1.53,2.13-.06,4.26,0,6.39,0,1.19,0,1.58.47,1.58,1.6S62,97,60.73,97c-2.18,0-4.37,0-6.55,0-1,0-1.46.38-1.41,1.41s.06,2.24,0,3.35.36,1.51,1.47,1.49c2.66,0,5.33,0,8,0,1.16,0,1.75.28,1.75,1.59s-.44,1.8-1.76,1.78c-3.78,0-7.56-.06-11.33,0-1.38,0-1.74-.58-1.73-1.82C49.21,101.47,49.18,98.23,49.18,95Z"/><path class="cls-1" d="M286.32,106.57a10.88,10.88,0,0,1-6.75-2c-.59-.4-1.26-.86-.48-1.6s.93-2.26,2.4-1.27a9.86,9.86,0,0,0,7,1.43c1.8-.23,2.83-1.16,3-2.57a2.67,2.67,0,0,0-1.91-3.09,44.14,44.14,0,0,0-4.82-1.08c-4-1.06-5.28-2.66-5.14-6.63.11-3.17,2.22-5.4,5.81-5.94a11.53,11.53,0,0,1,8.14,1.5c.59.37,1.35.76.59,1.56s-.8,2.31-2.33,1.37a8.21,8.21,0,0,0-5.5-1.18c-1.87.22-3.18,1.38-3.29,2.92s.86,2.44,2.81,3c1.69.44,3.43.74,5.11,1.25a5.43,5.43,0,0,1,4.15,5.23,6.06,6.06,0,0,1-3.51,6.24A11.53,11.53,0,0,1,286.32,106.57Z"/><path class="cls-1" d="M169.16,95c0-3.13,0-6.26,0-9.39,0-1.23.28-1.87,1.67-1.86s1.78.43,1.77,1.76q-.08,9.63,0,19.26c0,1.31-.44,1.76-1.75,1.77s-1.71-.6-1.69-1.84C169.2,101.47,169.16,98.23,169.16,95Z"/></svg>